<?xml version="1.0" encoding="utf-8"?>
<!-- Generator: Adobe Illustrator 24.1.2, SVG Export Plug-In . SVG Version: 6.00 Build 0)  -->
<svg version="1.1" id="Capa_1" xmlns="http://www.w3.org/2000/svg" xmlns:xlink="http://www.w3.org/1999/xlink" x="0px" y="0px"
	 viewBox="0 0 512 512" style="enable-background:new 0 0 512 512;" xml:space="preserve">
<style type="text/css">
	.st0{fill:#5A4D9B;}
</style>
<g>
	<path class="st0" d="M411.9,140.4c-1.4-0.6-2.9-0.9-4.5-0.9l-303,0c-1.6,0-3.1,0.3-4.5,0.9l156,135.2L411.9,140.4z"/>
	<path class="st0" d="M256,0.5C114.6,0.5,0,115.1,0,256.5s114.6,256,256,256s256-114.6,256-256S397.4,0.5,256,0.5z M407.5,395.8
		h-303c-19.3,0-35-15.7-35-35V151.1c0-19.3,15.7-35,35-35h303c19.3,0,35,15.7,35,35v209.7C442.4,380.1,426.8,395.8,407.5,395.8z"/>
	<path class="st0" d="M256,302.6c-2.7,0-5.4-0.9-7.6-2.8L92.9,165v195.9c0,6.4,5.2,11.7,11.7,11.7h303c6.4,0,11.7-5.2,11.7-11.7V165
		L263.6,299.8C261.4,301.7,258.7,302.6,256,302.6z"/>
</g>
</svg>
