<?xml version="1.0" encoding="utf-8"?>
<!-- Generator: Adobe Illustrator 24.1.2, SVG Export Plug-In . SVG Version: 6.00 Build 0)  -->
<svg version="1.1" id="Icons" xmlns="http://www.w3.org/2000/svg" xmlns:xlink="http://www.w3.org/1999/xlink" x="0px" y="0px"
	 viewBox="0 0 512 512" style="enable-background:new 0 0 512 512;" xml:space="preserve">
<style type="text/css">
	.st0{fill:#5A4D9B;}
</style>
<g>
	<path class="st0" d="M256,405.7c-5.4,0-9.8,4.4-9.8,9.8c0,5.4,4.4,9.8,9.8,9.8c5.4,0,9.8-4.4,9.8-9.8c0,0,0,0,0,0
		C265.8,410.1,261.4,405.7,256,405.7z"/>
	<rect x="148.7" y="116.8" class="st0" width="214.6" height="255.2"/>
	<path class="st0" d="M363.3,105.2v-29c0-6.4-5.2-11.6-11.6-11.6H160.3c-6.4,0-11.6,5.2-11.6,11.6v29H363.3z M232.8,80.5h46.4
		c3.2,0,5.8,2.6,5.8,5.8s-2.6,5.8-5.8,5.8h-46.4c-3.2,0-5.8-2.6-5.8-5.8S229.6,80.5,232.8,80.5z"/>
	<path class="st0" d="M148.7,383.6v52.2c0,6.4,5.2,11.6,11.6,11.6h191.4c6.4,0,11.6-5.2,11.6-11.6v-52.2H148.7z M256,436.9
		c-11.8,0-21.4-9.6-21.4-21.4s9.6-21.4,21.4-21.4s21.4,9.6,21.4,21.4C277.4,427.3,267.8,436.9,256,436.9z"/>
	<path class="st0" d="M256,0.5C114.6,0.5,0,115.1,0,256.5s114.6,256,256,256s256-114.6,256-256S397.4,0.5,256,0.5z M374.9,435.8
		c0,12.8-10.4,23.2-23.2,23.2H160.3c-12.8,0-23.2-10.4-23.2-23.2V76.2c0-12.8,10.4-23.2,23.2-23.2h191.4c12.8,0,23.2,10.4,23.2,23.2
		V435.8z"/>
</g>
</svg>
